<?xml version="1.0" encoding="iso-8859-1"?>
<!-- Uploaded to: SVG Repo, www.svgrepo.com, Generator: SVG Repo Mixer Tools -->
<svg height="800px" width="800px" version="1.1" id="Layer_1" xmlns="http://www.w3.org/2000/svg" xmlns:xlink="http://www.w3.org/1999/xlink" 
	 viewBox="0 0 508.4 508.4" xml:space="preserve">
<path style="fill:#EEEEEE;" d="M82,470.4h340.4V74h-68v11.2c0,2,0.8,4.8-1.2,4.8H154c-2,0-4.4-2.8-4.4-4.8V74h-68v396.4H82z"/>
<path style="fill:#795548;" d="M435.2,52h-75.6c-2.8-0.4-2.8-0.8-3.2-0.4h-2v20.8h72.8v400.4H80V72h72.8V56h1.6l-1.6-2.8l0,0v-0.8
	H152c-0.4-0.4-0.8-0.4-1.2-0.4l0,0h-2v0.4H74.4c-16.8,0-30.8,13.2-30.8,29.6v388.4c0,16.4,14,30,30.8,30h360.4
	c16,0,28.4-13.2,28.4-30V81.6C463.6,64.8,451.2,52,435.2,52z"/>
<g>
	<path style="fill:#FFB74D;" d="M252,6c-11.2,0-20.4,7.2-23.2,18.4c-0.4,2-2,3.2-4,3.2h-42.4c-14,0-24,11.2-26,25.6
		c0,1.6,1.6,2.8,1.6,4v17.2V88h193.6V74.4V57.2c0-1.6-0.8-2.8-0.8-4c-2-14.4-11.2-29.6-25.6-29.6h-42c-2,0-3.6-1.6-4-3.2
		C276,9.2,263.2,6,252,6"/>
	<path style="fill:#FFB74D;" d="M254,13.6c8.8,0,16,7.2,16,16s-7.2,16-16,16c-8.8,0-16-7.2-16-16C238,20.8,245.2,13.6,254,13.6z"/>
</g>
<path style="fill:#EEEEEE;" d="M254,37.6c-4.4,0-8-3.6-8-8s3.6-8,8-8c4.4,0,8,3.6,8,8S258.4,37.6,254,37.6z"/>
<path style="fill:#EF5350;" d="M165.2,318.4h54.4c2,0,2.4-3.2,2.4-1.2v58c0,3.2,8.4,11.2,12,11.2l45.6-4c4,0,2.4-0.4,2.4-3.2v-58
	c0-2,7.2-6.8,9.2-6.8h57.2c3.2,0,1.6,0,1.6-3.6v-42.4c0-4,1.6-10.4-1.6-10.4h-61.2c-2,0-5.2-2.4-5.2-4.4V196c0-2.8,1.6-6-2.4-6H234
	c-3.6,0-12,2.4-12,6v57.6c0,2,4,4.4,1.6,4.4h-58.4c-2.8,0-7.2,3.6-7.2,7.2v41.6C158,310,162,318.4,165.2,318.4z"/>
<path d="M428,480.4H79.6c-2.4,0-4-1.6-4-4V72c0-2.4,1.6-4,4-4h74c2.4,0,4,1.6,4,4s-1.6,4-4,4h-70v396.4H424V76h-70c-2.4,0-4-1.6-4-4
	s1.6-4,4-4h74c2.4,0,4,1.6,4,4v404.4C432,478.4,430.4,480.4,428,480.4z"/>
<path d="M434,508.4H76.4c-19.6,0-36.4-17.6-36.4-38V81.6C40,62.8,56,48,76.4,48H154c2.4,0,4,1.6,4,4s-1.6,4-4,4H76.4
	C60,56,48,66.8,48,81.6v388.8c0,15.6,13.6,30,28.4,30H434c15.6,0,26.4-15.6,26.4-30V81.6c0-15.2-10.8-25.6-26.4-25.6h-80
	c-2.4,0-4-1.6-4-4s1.6-4,4-4h80c20,0,34.4,14,34.4,33.6v388.8C468,491.2,452.8,508.4,434,508.4z"/>
<path d="M254,45.6c-8.8,0-16-7.2-16-16s7.2-16,16-16c8.8,0,16,7.2,16,16S262.8,45.6,254,45.6z M254,21.6c-4.4,0-8,3.6-8,8s3.6,8,8,8
	c4.4,0,8-3.6,8-8C262,25.2,258.4,21.6,254,21.6z"/>
<path d="M352,92H156c-2.4,0-4-1.6-4-4V53.2c0-19.2,15.2-33.6,35.6-33.6H226C230.8,7.6,242,0,255.2,0c13.2,0,24.8,7.6,29.2,19.6h38
	c20,0,33.6,13.6,33.6,33.6V88C356,90.4,354.4,92,352,92z M160,84h188V53.2c0-15.2-10.4-25.6-25.6-25.6h-40.8c-1.6,0-3.2-1.2-4-2.8
	C274.8,14.8,266,8,254.8,8c-11.2,0-19.6,6.4-22.4,16.8c-0.4,1.6-2,2.8-4,2.8h-41.2c-16,0-27.6,10.8-27.6,25.6V84H160z"/>
<path d="M273.6,390.4H234c-7.6,0-12.8-5.6-12.8-13.6v-57.6h-57.6c-8,0-13.6-5.2-13.6-12.8v-40c0-7.6,5.6-12.8,13.6-12.8h57.6V196
	c0-8,5.2-13.6,12.8-13.6h39.6c7.6,0,13.2,5.6,13.2,13.6v57.6h57.6c8,0,13.6,5.2,13.6,12.8v40c0,7.6-5.6,12.8-13.6,12.8h-57.6v57.6
	C286.8,384.8,281.6,390.4,273.6,390.4z M163.6,261.6c-2,0-5.6,0.8-5.6,4.8v40c0,4,2.8,4.8,5.6,4.8h61.6c2.4,0,4,1.6,4,4v61.6
	c0,1.6,0.4,5.6,4.8,5.6h39.6c4.4,0,5.2-4,5.2-5.6v-61.6c0-2.4,1.6-4,4-4h61.6c2.4,0,5.6-0.8,5.6-4.8v-40c0-4.4-3.6-4.8-5.6-4.8
	h-61.6c-2.4,0-4-1.6-4-4V196c0-1.6-0.4-5.6-5.2-5.6H234c-4.4,0-4.8,4-4.8,5.6v61.6c0,2.4-1.6,4-4,4H163.6z"/>
</svg>