<?xml version="1.0" encoding="iso-8859-1"?>
<!-- Uploaded to: SVG Repo, www.svgrepo.com, Generator: SVG Repo Mixer Tools -->
<svg height="800px" width="800px" version="1.1" id="Layer_1" xmlns="http://www.w3.org/2000/svg" xmlns:xlink="http://www.w3.org/1999/xlink" 
	 viewBox="0 0 512.003 512.003" xml:space="preserve">
<path style="fill:#D9B314;" d="M256.961,160.259c-19.717,0-35.701-15.984-35.701-35.701V35.701C221.26,15.984,237.243,0,256.961,0
	s35.701,15.984,35.701,35.701v88.857C292.662,144.275,276.678,160.259,256.961,160.259z"/>
<path style="fill:#C7A412;" d="M256.961,0c-0.321,0-0.639,0.016-0.959,0.025v160.211c0.319,0.009,0.637,0.025,0.959,0.025
	c19.717,0,35.701-15.984,35.701-35.701V35.701C292.662,15.984,276.678,0,256.961,0z"/>
<circle style="fill:#C27E00;" cx="256.004" cy="454.088" r="57.915"/>
<path style="fill:#FAD52D;" d="M396.427,224.015v-0.007c0-77.554-62.87-140.425-140.425-140.425s-140.426,62.871-140.426,140.426
	v0.008c0,47.156-33.718,151.789-33.718,161.045h348.286C430.145,375.806,396.427,270.828,396.427,224.015z"/>
<path style="fill:#F0CC2B;" d="M256.001,385.061h174.144c0-9.256-33.718-114.233-33.718-161.046v-0.007
	c0-77.554-62.87-140.425-140.425-140.425v301.478H256.001z"/>
<path style="fill:#ED9B00;" d="M96.927,325.735h318.18c-2.779-10.765-5.624-22.194-8.231-33.595H105.161
	C102.555,303.546,99.71,314.974,96.927,325.735z"/>
<path style="fill:#E39400;" d="M256.001,325.735h159.106c-2.779-10.765-5.624-22.194-8.231-33.595H256.001V325.735z"/>
<path style="fill:#ED9B00;" d="M425.975,454.084H86.029c-19.173,0-34.715-15.542-34.715-34.715v-4.354
	c0-19.173,15.542-34.715,34.715-34.715h339.946c19.172,0,34.715,15.542,34.715,34.715v4.354
	C460.689,438.542,445.147,454.084,425.975,454.084z"/>
<path style="fill:#E39400;" d="M425.975,380.302H256.001v73.783h169.974c19.172,0,34.715-15.542,34.715-34.715v-4.354
	C460.689,395.844,445.147,380.302,425.975,380.302z"/>
</svg>